<?xml version="1.0" encoding="utf-8"?>
<!-- Generator: Adobe Illustrator 18.1.1, SVG Export Plug-In . SVG Version: 6.00 Build 0)  -->
<svg version="1.1" id="Слой_1" xmlns="http://www.w3.org/2000/svg" xmlns:xlink="http://www.w3.org/1999/xlink" x="0px" y="0px"
	 viewBox="24 0 16 16" enable-background="new 24 0 16 16" xml:space="preserve">
<path fill="#FFFFFF" d="M40,9.5v-3h-1.8l-0.7-1.8l1.3-1.3l-2.1-2.1l-1.3,1.3l-1.9-0.8V0h-3v1.8l-1.8,0.8l-1.3-1.3l-2.1,2.1l1.3,1.3
	l-0.8,1.8H24v3h1.8l0.7,1.8l-1.3,1.3l2.1,2.1l1.3-1.3l1.8,0.7V16h3v-1.8l1.8-0.7l1.3,1.3l2.1-2.1l-1.3-1.3L38,9.6h2V9.5z M32,12
	c-2.2,0-4-1.8-4-4s1.8-4,4-4s4,1.8,4,4S34.2,12,32,12z"/>
</svg>
